<svg width="1200" height="900" viewBox="0 0 1200 900" fill="none" xmlns="http://www.w3.org/2000/svg">
  <rect width="1200" height="900" rx="48" fill="url(#background)"/>
  <circle cx="917" cy="162" r="76" fill="#FFF4C2" fill-opacity="0.95"/>
  <circle cx="917" cy="162" r="112" fill="#FFF4C2" fill-opacity="0.35"/>
  <path d="M135 724C245 579 349 506 480 479C611 452 705 515 813 494C913 474 992 397 1070 287V900H85V799C92 775 111 754 135 724Z" fill="url(#ground)"/>
  <path d="M753 256C782 229 833 232 860 263C890 297 890 352 857 384C811 430 735 437 672 413C703 395 731 370 749 336C757 321 761 306 763 291C755 296 748 304 740 312C708 346 663 367 619 370C636 326 676 286 727 270C736 267 744 265 753 256Z" fill="#FFFFFF"/>
  <path d="M746 290C719 302 686 306 652 300C677 325 708 342 742 348C756 325 763 309 746 290Z" fill="#EAF6FF"/>
  <path d="M844 279C812 293 776 296 742 289C756 308 774 322 794 334C816 321 836 303 844 279Z" fill="#EAF6FF"/>
  <path d="M782 243C809 223 850 222 877 247C896 265 905 290 906 316C884 292 852 278 817 279C803 266 793 254 782 243Z" fill="#FFFFFF"/>
  <circle cx="780" cy="291" r="8" fill="#0F766E"/>
  <path d="M893 316C923 295 969 304 987 338C1003 367 996 406 969 427C955 389 927 348 893 316Z" fill="#F5A524"/>
  <path d="M514 220C540 220 561 241 561 267V469C561 487 576 502 594 502C611 502 626 487 626 469V211C626 181 651 157 682 157C712 157 736 181 736 211V236C736 267 712 291 682 291C672 291 664 289 656 285V469C656 504 628 532 594 532C559 532 531 504 531 469V323C514 330 494 334 474 334C404 334 347 277 347 207C347 137 404 80 474 80C515 80 550 99 573 128L548 151C532 127 505 112 474 112C421 112 379 154 379 207C379 260 421 302 474 302C494 302 513 296 529 286V267C529 241 550 220 576 220H514Z" fill="#0F766E"/>
  <path d="M195 508C233 470 296 469 335 506C370 540 374 593 345 632L303 688L263 646L304 605C319 589 320 563 307 547C292 528 262 526 244 542L184 600C166 618 136 617 120 597C106 580 108 553 125 536L195 508Z" fill="#FFFFFF" fill-opacity="0.92"/>
  <path d="M310 523C344 491 398 491 431 523C459 550 465 593 445 627L413 680L374 655L404 603C412 589 410 572 399 561C387 548 367 547 354 558L290 613C260 639 214 638 186 611C158 584 158 539 186 511L217 543C202 557 201 580 214 594C227 608 250 608 264 594L310 523Z" fill="#F7C948"/>
  <path d="M231 726C202 698 202 652 231 623L257 649C243 663 243 685 257 699L321 763C335 777 357 777 371 763L430 704C443 691 443 669 430 655C418 643 398 641 383 652L358 625C387 599 433 600 460 627C489 655 489 700 461 728L401 788C372 817 325 817 296 788L231 726Z" fill="#FFFFFF" fill-opacity="0.95"/>
  <path d="M151 378C231 364 295 345 342 321C389 297 433 261 475 212" stroke="#FFFFFF" stroke-width="18" stroke-linecap="round" stroke-opacity="0.45"/>
  <path d="M924 571C965 550 1005 516 1040 473" stroke="#FFFFFF" stroke-width="16" stroke-linecap="round" stroke-opacity="0.38"/>
  <defs>
    <linearGradient id="background" x1="124" y1="74" x2="1099" y2="819" gradientUnits="userSpaceOnUse">
      <stop stop-color="#0F766E"/>
      <stop offset="0.54" stop-color="#1D4ED8"/>
      <stop offset="1" stop-color="#F59E0B"/>
    </linearGradient>
    <linearGradient id="ground" x1="566" y1="479" x2="566" y2="900" gradientUnits="userSpaceOnUse">
      <stop stop-color="#FFF8E0" stop-opacity="0.72"/>
      <stop offset="1" stop-color="#FFF8E0" stop-opacity="0.12"/>
    </linearGradient>
  </defs>
</svg>